<?xml version="1.0" encoding="iso-8859-1"?>
<!-- Generator: Adobe Illustrator 21.0.0, SVG Export Plug-In . SVG Version: 6.00 Build 0)  -->
<svg version="1.1" id="Capa_1" xmlns="http://www.w3.org/2000/svg" xmlns:xlink="http://www.w3.org/1999/xlink" x="0px" y="0px"
	 viewBox="0 0 512 512" style="enable-background:new 0 0 512 512;" xml:space="preserve">
<polygon style="fill:#4A7AFF;" points="60.07,32.652 288.158,32.652 288.158,186.611 146.991,186.611 103.244,225.511 
	103.244,186.611 60.07,186.611 "/>
<rect x="174.11" y="32.652" style="fill:#0053BF;" width="114.04" height="153.96"/>
<polygon style="fill:#FFE733;" points="475.491,473.681 247.404,473.681 247.404,319.722 388.571,319.722 432.318,280.822 
	432.318,319.722 475.491,319.722 "/>
<polygon style="fill:#E8C917;" points="475.491,319.722 432.318,319.722 432.318,280.822 388.571,319.722 361.448,319.722 
	361.448,473.681 475.491,473.681 "/>
<path style="fill:#FE8205;" d="M507.256,206.051c-14.218-21.808-21.788-47.279-21.788-73.312v-24.064H334.916v24.064
	c0,26.033-7.57,51.504-21.788,73.312l-4.744,7.276c0,0,42.095,24.129,101.808,24.129S512,213.327,512,213.327L507.256,206.051z"/>
<path style="fill:#FE6A16;" d="M507.256,206.051c-14.218-21.808-21.788-47.279-21.788-73.312v-24.064h-75.276v128.782
	c59.713,0,101.808-24.129,101.808-24.129L507.256,206.051z"/>
<path style="fill:#FFCDBE;" d="M485.468,95.982c0-41.574-33.702-75.276-75.276-75.276l0,0c-41.574,0-75.276,33.702-75.276,75.276
	v43.523c0,41.574,33.702,75.276,75.276,75.276l0,0c41.574,0,75.276-33.702,75.276-75.276V95.982z"/>
<path style="fill:#FFBEAA;" d="M410.192,20.706v194.075c41.574,0,75.276-33.702,75.276-75.276V95.982
	C485.468,54.408,451.766,20.706,410.192,20.706z"/>
<path style="fill:#FE8205;" d="M399.874,88.386l10.318-6.244l10.318,6.244c9.354,5.661,20.08,8.654,31.014,8.654h33.944v-1.058
	c0-41.574-33.702-75.276-75.276-75.276l0,0c-41.574,0-75.276,33.702-75.276,75.276v1.058h33.944
	C379.794,97.04,390.52,94.048,399.874,88.386z"/>
<path style="fill:#FE6A16;" d="M410.192,20.706v61.436l10.318,6.244c9.354,5.661,20.08,8.654,31.014,8.654h33.944v-1.058
	C485.468,54.408,451.766,20.706,410.192,20.706z"/>
<path style="fill:#4F2F25;" d="M75.276,257.907L75.276,257.907c-18.511,0-33.517,15.006-33.517,33.516v34.373h67.033v-34.373
	C108.793,272.913,93.787,257.907,75.276,257.907z"/>
<path style="fill:#402922;" d="M75.276,257.907L75.276,257.907c0,21.406,0,67.89,0,67.89h33.517v-34.373
	C108.793,272.913,93.787,257.907,75.276,257.907z"/>
<path style="fill:#C48958;" d="M150.553,372.495c0-41.574-33.702-75.276-75.276-75.276l0,0C33.702,297.219,0,330.921,0,372.495
	v43.523c0,41.574,33.702,75.276,75.276,75.276l0,0c41.574,0,75.276-33.702,75.276-75.276L150.553,372.495L150.553,372.495z"/>
<path style="fill:#B27A49;" d="M75.276,297.219v194.075c41.574,0,75.276-33.702,75.276-75.276v-43.523
	C150.553,330.921,116.85,297.219,75.276,297.219z"/>
<path style="fill:#5E382C;" d="M47.236,359.109l2.818,1.793c11.896,7.571,25.705,11.593,39.806,11.593h60.693
	c0-41.574-33.702-75.276-75.276-75.276l0,0C33.702,297.219,0,330.921,0,372.495v20.906h6.697c16.2,0,30.767-9.863,36.784-24.904
	L47.236,359.109z"/>
<path style="fill:#4F2F25;" d="M150.553,372.495c0-41.574-33.702-75.276-75.276-75.276v73.816c4.78,0.959,9.663,1.46,14.583,1.46
	H150.553z"/>
<g>
</g>
<g>
</g>
<g>
</g>
<g>
</g>
<g>
</g>
<g>
</g>
<g>
</g>
<g>
</g>
<g>
</g>
<g>
</g>
<g>
</g>
<g>
</g>
<g>
</g>
<g>
</g>
<g>
</g>
</svg>
